<svg width="200" height="200" viewBox="0 0 200 200" xmlns="http://www.w3.org/2000/svg">

  <svg x="0" y="0" width="100" height="100" viewBox="0 0 100 100" fill="none">
    <mask id="vscode-mask0" mask-type="alpha" maskUnits="userSpaceOnUse" x="0" y="0" width="100" height="100">
      <path fill-rule="evenodd" clip-rule="evenodd"
        d="M70.9119 99.3171C72.4869 99.9307 74.2828 99.8914 75.8725 99.1264L96.4608 89.2197C98.6242 88.1787 100 85.9892 100 83.5872V16.4133C100 14.0113 98.6243 11.8218 96.4609 10.7808L75.8725 0.873756C73.7862 -0.130129 71.3446 0.11576 69.5135 1.44695C69.252 1.63711 69.0028 1.84943 68.769 2.08341L29.3551 38.0415L12.1872 25.0096C10.589 23.7965 8.35363 23.8959 6.86933 25.2461L1.36303 30.2549C-0.452552 31.9064 -0.454633 34.7627 1.35853 36.417L16.2471 50.0001L1.35853 63.5832C-0.454633 65.2374 -0.452552 68.0938 1.36303 69.7453L6.86933 74.7541C8.35363 76.1043 10.589 76.2037 12.1872 74.9905L29.3551 61.9587L68.769 97.9167C69.3925 98.5406 70.1246 99.0104 70.9119 99.3171ZM75.0152 27.2989L45.1091 50.0001L75.0152 72.7012V27.2989Z"
        fill="white" />
    </mask>
    <g mask="url(#vscode-mask0)">
      <path
        d="M96.4614 10.7962L75.8569 0.875542C73.4719 -0.272773 70.6217 0.211611 68.75 2.08333L1.29858 63.5832C-0.515693 65.2373 -0.513607 68.0937 1.30308 69.7452L6.81272 74.754C8.29793 76.1042 10.5347 76.2036 12.1338 74.9905L93.3609 13.3699C96.086 11.3026 100 13.2462 100 16.6667V16.4275C100 14.0265 98.6246 11.8378 96.4614 10.7962Z"
        fill="#0065A9" />
      <g filter="url(#vscode-filter0_d)">
        <path
          d="M96.4614 89.2038L75.8569 99.1245C73.4719 100.273 70.6217 99.7884 68.75 97.9167L1.29858 36.4169C-0.515693 34.7627 -0.513607 31.9063 1.30308 30.2548L6.81272 25.246C8.29793 23.8958 10.5347 23.7964 12.1338 25.0095L93.3609 86.6301C96.086 88.6974 100 86.7538 100 83.3334V83.5726C100 85.9735 98.6246 88.1622 96.4614 89.2038Z"
          fill="#007ACC" />
      </g>
      <g filter="url(#vscode-filter1_d)">
        <path
          d="M75.8578 99.1263C73.4721 100.274 70.6219 99.7885 68.75 97.9166C71.0564 100.223 75 98.5895 75 95.3278V4.67213C75 1.41039 71.0564 -0.223106 68.75 2.08329C70.6219 0.211402 73.4721 -0.273666 75.8578 0.873633L96.4587 10.7807C98.6234 11.8217 100 14.0112 100 16.4132V83.5871C100 85.9891 98.6234 88.1786 96.4586 89.2196L75.8578 99.1263Z"
          fill="#1F9CF0" />
      </g>
      <g style="mix-blend-mode:overlay" opacity="0.25">
        <path fill-rule="evenodd" clip-rule="evenodd"
          d="M70.8511 99.3171C72.4261 99.9306 74.2221 99.8913 75.8117 99.1264L96.4 89.2197C98.5634 88.1787 99.9392 85.9892 99.9392 83.5871V16.4133C99.9392 14.0112 98.5635 11.8217 96.4001 10.7807L75.8117 0.873695C73.7255 -0.13019 71.2838 0.115699 69.4527 1.44688C69.1912 1.63705 68.942 1.84937 68.7082 2.08335L29.2943 38.0414L12.1264 25.0096C10.5283 23.7964 8.29285 23.8959 6.80855 25.246L1.30225 30.2548C-0.513334 31.9064 -0.515415 34.7627 1.29775 36.4169L16.1863 50L1.29775 63.5832C-0.515415 65.2374 -0.513334 68.0937 1.30225 69.7452L6.80855 74.754C8.29285 76.1042 10.5283 76.2036 12.1264 74.9905L29.2943 61.9586L68.7082 97.9167C69.3317 98.5405 70.0638 99.0104 70.8511 99.3171ZM74.9544 27.2989L45.0483 50L74.9544 72.7012V27.2989Z"
          fill="url(#vscode-paint0_linear)" />
      </g>
    </g>
    <defs>
      <filter id="vscode-filter0_d" x="-8.39411" y="15.8291" width="116.727" height="92.2456"
        filterUnits="userSpaceOnUse" color-interpolation-filters="sRGB">
        <feFlood flood-opacity="0" result="BackgroundImageFix" />
        <feColorMatrix in="SourceAlpha" type="matrix" values="0 0 0 0 0 0 0 0 0 0 0 0 0 0 0 0 0 0 127 0" />
        <feOffset />
        <feGaussianBlur stdDeviation="4.16667" />
        <feColorMatrix type="matrix" values="0 0 0 0 0 0 0 0 0 0 0 0 0 0 0 0 0 0 0.25 0" />
        <feBlend mode="overlay" in2="BackgroundImageFix" result="effect1_dropShadow" />
        <feBlend mode="normal" in="SourceGraphic" in2="effect1_dropShadow" result="shape" />
      </filter>
      <filter id="vscode-filter1_d" x="60.4167" y="-8.07558" width="47.9167" height="116.151"
        filterUnits="userSpaceOnUse" color-interpolation-filters="sRGB">
        <feFlood flood-opacity="0" result="BackgroundImageFix" />
        <feColorMatrix in="SourceAlpha" type="matrix" values="0 0 0 0 0 0 0 0 0 0 0 0 0 0 0 0 0 0 127 0" />
        <feOffset />
        <feGaussianBlur stdDeviation="4.16667" />
        <feColorMatrix type="matrix" values="0 0 0 0 0 0 0 0 0 0 0 0 0 0 0 0 0 0 0.25 0" />
        <feBlend mode="overlay" in2="BackgroundImageFix" result="effect1_dropShadow" />
        <feBlend mode="normal" in="SourceGraphic" in2="effect1_dropShadow" result="shape" />
      </filter>
      <!-- <linearGradient id="vscode-paint0_linear" x1="0" y1="0" x2="100" y2="100" gradientUnits="userSpaceOnUse">
          <stop stop-color="white"/>
          <stop offset="1" stop-color="white" stop-opacity="0"/>
      </linearGradient> -->
    </defs>
  </svg>
  <svg x="100" y="100" width="100" height="100" viewBox="0 0 256 256" fill="none">
    <g clip-path="url(#clip0_1_943)">
      <path
        d="M65.08 216.038L13.5601 189.598L13.08 189.358C5.31996 185.398 0 177.318 0 167.998V87.998C0 78.678 5.31996 70.598 13.08 66.638L13.5601 66.398L65.08 39.958C57.32 43.958 52 51.998 52 61.318V194.678C52 203.998 57.32 212.038 65.08 216.038Z"
        fill="url(#paint0_linear_1_943)" />
      <path
        d="M241.24 39.158C238.4 37.998 235.28 37.318 232 37.318C224 37.318 216.92 41.238 212.56 47.238L212.48 47.358L192 75.598L154 127.998L114.28 182.758L95.52 208.638L95.4399 208.758C91.0799 214.758 84 218.678 76 218.678C72.16 218.678 68.52 217.758 65.28 216.158C65.2 216.118 65.12 216.078 65.08 216.038L13.5601 189.598C16.7201 191.118 20.28 191.998 24 191.998C32.44 191.998 39.84 187.638 44.12 181.078L52 168.958L78.64 127.998L114.28 73.238L147.88 21.598C152.16 14.998 159.56 10.678 168 10.678C171.28 10.678 174.4 11.318 177.24 12.518L241.24 39.158Z"
        fill="url(#paint1_linear_1_943)" />
      <path
        d="M241.24 39.158C238.4 37.998 235.28 37.318 232 37.318C224 37.318 216.92 41.238 212.56 47.238L212.48 47.358L192 75.598L154 127.998L114.28 182.758L95.52 208.638L95.4399 208.758C91.0799 214.758 84 218.678 76 218.678C72.16 218.678 68.52 217.758 65.28 216.158C65.2 216.118 65.12 216.078 65.08 216.038L13.5601 189.598C16.7201 191.118 20.28 191.998 24 191.998C32.44 191.998 39.84 187.638 44.12 181.078L52 168.958L78.64 127.998L114.28 73.238L147.88 21.598C152.16 14.998 159.56 10.678 168 10.678C171.28 10.678 174.4 11.318 177.24 12.518L241.24 39.158Z"
        fill="url(#paint2_linear_1_943)" fill-opacity="0.3" />
      <path
        d="M241.24 216.838L177.24 243.478C174.4 244.678 171.28 245.318 168 245.318C159.56 245.318 152.16 240.998 147.88 234.398L114.28 182.758L78.64 127.998L52 87.0381L44.12 74.9181C39.84 68.3581 32.44 63.9981 24 63.9981C20.28 63.9981 16.7201 64.8781 13.5601 66.3981L65.08 39.9581C65.12 39.9181 65.2 39.8781 65.28 39.8381C68.52 38.2381 72.16 37.3181 76 37.3181C84 37.3181 91.0799 41.2381 95.4399 47.2381L95.52 47.3581L114.28 73.2381L154 127.998L192 180.398L212.48 208.638L212.56 208.758C216.92 214.758 224 218.678 232 218.678C235.28 218.678 238.4 217.998 241.24 216.838Z"
        fill="url(#paint3_linear_1_943)" />
      <path
        d="M241.24 216.838L177.24 243.478C174.4 244.678 171.28 245.318 168 245.318C159.56 245.318 152.16 240.998 147.88 234.398L114.28 182.758L78.64 127.998L52 87.0381L44.12 74.9181C39.84 68.3581 32.44 63.9981 24 63.9981C20.28 63.9981 16.7201 64.8781 13.5601 66.3981L65.08 39.9581C65.12 39.9181 65.2 39.8781 65.28 39.8381C68.52 38.2381 72.16 37.3181 76 37.3181C84 37.3181 91.0799 41.2381 95.4399 47.2381L95.52 47.3581L114.28 73.2381L154 127.998L192 180.398L212.48 208.638L212.56 208.758C216.92 214.758 224 218.678 232 218.678C235.28 218.678 238.4 217.998 241.24 216.838Z"
        fill="url(#paint4_radial_1_943)" />
      <path
        d="M256 61.3181V194.678C256 204.638 249.92 213.198 241.24 216.838L177.24 243.478C185.92 239.878 192 231.318 192 221.318V34.6781C192 24.6781 185.92 16.1181 177.24 12.5181L241.24 39.1581C249.92 42.7981 256 51.3581 256 61.3181Z"
        fill="url(#paint5_linear_1_943)" />
    </g>
    <defs>
      <linearGradient id="paint0_linear_1_943" x1="-24.2354" y1="216.038" x2="83.5542" y2="158.686"
        gradientUnits="userSpaceOnUse">
        <stop offset="0.0725439" stop-color="#85148A" />
        <stop offset="0.296162" stop-color="#7F21A9" />
        <stop offset="0.661273" stop-color="#5B2AB5" />
        <stop offset="0.854932" stop-color="#4B20A0" />
      </linearGradient>
      <linearGradient id="paint1_linear_1_943" x1="165.436" y1="2.67797" x2="55.8073" y2="233.437"
        gradientUnits="userSpaceOnUse">
        <stop stop-color="#4B20A0" />
        <stop offset="0.265936" stop-color="#6D37CD" />
        <stop offset="0.7848" stop-color="#7A41DC" />
        <stop offset="1" stop-color="#CA59F7" />
      </linearGradient>
      <linearGradient id="paint2_linear_1_943" x1="142.065" y1="110.678" x2="63.0371" y2="167.208"
        gradientUnits="userSpaceOnUse">
        <stop stop-color="#30116E" stop-opacity="0" />
        <stop offset="0.164241" stop-color="#30116E" stop-opacity="0.7" />
        <stop offset="0.712141" stop-color="#30116E" />
        <stop offset="1" stop-color="#30116E" stop-opacity="0" />
      </linearGradient>
      <linearGradient id="paint3_linear_1_943" x1="44.8258" y1="37.3181" x2="164.911" y2="271.838"
        gradientUnits="userSpaceOnUse">
        <stop offset="0.0374343" stop-color="#FFBAC7" />
        <stop offset="0.187907" stop-color="#EA71EF" />
        <stop offset="0.349289" stop-color="#CA59F7" />
        <stop offset="0.618324" stop-color="#8B52F4" />
        <stop offset="1" stop-color="#5750E2" />
      </linearGradient>
      <radialGradient id="paint4_radial_1_943" cx="0" cy="0" r="1"
        gradientTransform="matrix(215.747 86.6666 -197.178 492.004 -3.69969 149.318)" gradientUnits="userSpaceOnUse">
        <stop offset="0.611142" stop-color="#8B52F4" stop-opacity="0" />
        <stop offset="0.977982" stop-color="#30116E" />
      </radialGradient>
      <linearGradient id="paint5_linear_1_943" x1="216.62" y1="-10.6204" x2="216.62" y2="274.614"
        gradientUnits="userSpaceOnUse">
        <stop stop-color="#FFBAC7" />
        <stop offset="0.291496" stop-color="#EA71EF" />
        <stop offset="0.675458" stop-color="#8B52F4" />
        <stop offset="0.916582" stop-color="#5750E2" />
      </linearGradient>
      <clipPath id="clip0_1_943">
        <rect width="256" height="256" fill="white" />
      </clipPath>
    </defs>
  </svg>
</svg>